<svg width="20" height="20" viewBox="0 0 20 20" fill="none" xmlns="http://www.w3.org/2000/svg">
<path d="M10.5032 10L13.8205 5.35896C13.9669 5.15062 13.9845 4.93458 13.8734 4.71083C13.7623 4.48694 13.578 4.375 13.3207 4.375C13.2176 4.375 13.1198 4.39847 13.0271 4.44542C12.9345 4.49236 12.8624 4.55757 12.8109 4.64104L8.97444 10L12.8109 15.359C12.8626 15.4424 12.9349 15.5076 13.0278 15.5546C13.1208 15.6015 13.219 15.625 13.3221 15.625C13.5701 15.625 13.7517 15.5131 13.8669 15.2892C13.9824 15.0654 13.9669 14.8494 13.8205 14.641L10.5032 10ZM5.60902 10L8.92631 5.35896C9.0727 5.15062 9.09034 4.93458 8.97923 4.71083C8.86812 4.48694 8.68388 4.375 8.42652 4.375C8.32346 4.375 8.22562 4.39847 8.13298 4.44542C8.04034 4.49236 7.96826 4.55757 7.91673 4.64104L4.08027 10L7.91673 15.359C7.9684 15.4424 8.04069 15.5076 8.1336 15.5546C8.22652 15.6015 8.32465 15.625 8.42798 15.625C8.67576 15.625 8.85735 15.5131 8.97277 15.2892C9.08819 15.0654 9.0727 14.8494 8.92631 14.641L5.60902 10Z" fill="white"/>
</svg>
