<svg width="229" height="65" viewBox="0 0 229 65" fill="none" xmlns="http://www.w3.org/2000/svg">
<path fill-rule="evenodd" clip-rule="evenodd" d="M54.8365 36.7741C54.6447 36.4833 54.4815 36.2621 54.3428 36.0287C53.4696 34.5582 53.8899 32.8624 55.4689 32.2112C58.6228 30.9045 61.7971 29.647 65.0163 28.5247C67.799 27.5417 70.655 26.7552 73.4499 25.764C71.928 26.1285 70.4021 26.4767 68.8802 26.8535C65.714 27.6318 62.5492 28.421 59.3858 29.2211C57.0438 29.815 54.71 30.4499 52.3721 31.052C49.006 31.904 45.6481 32.7682 42.2738 33.5874C40.5724 33.997 38.8588 34.3739 37.137 34.6729C36.0957 34.8542 35.0398 34.9378 33.983 34.9227C33.2342 34.8989 32.5142 34.6274 31.935 34.1503C31.3558 33.6733 30.9498 33.0175 30.7802 32.2849C30.5972 31.5778 30.6388 30.8309 30.8992 30.1487C31.1596 29.4665 31.6258 28.883 32.2327 28.4797C34.3299 27.0338 36.7208 26.2146 39.1158 25.5141C41.7244 24.7441 44.3452 24.0273 46.9782 23.3637C49.4262 22.7452 51.9233 22.2209 54.3999 21.6803C56.8765 21.1396 59.3613 20.6317 61.8502 20.1279C65.6583 19.3578 69.4786 18.5973 73.3112 17.8464C76.7793 17.1705 80.2474 16.4988 83.7236 15.8598C87.5589 15.1553 91.3983 14.4726 95.2417 13.8118C99.7299 13.054 104.242 12.3085 108.755 11.6245C113.624 10.8845 118.5 10.184 123.382 9.52321C126.973 9.04398 130.575 8.58522 134.182 8.2944C137.01 8.04864 139.85 7.9913 142.689 7.95853C143.397 7.95506 144.079 8.23003 144.587 8.72459C145.096 9.21914 145.392 9.89396 145.411 10.6046C145.496 12.0669 144.48 13.2711 142.889 13.566C139.319 14.2173 135.733 14.7702 132.187 15.5321C118.4 18.4894 104.683 21.754 91.182 25.8582C90.8867 25.9417 90.6097 26.0806 90.366 26.2678C92.4836 25.9401 94.6093 25.6739 96.7147 25.2766C101.582 24.3591 106.438 23.3678 111.305 22.4093C116.854 21.3321 122.395 20.1197 128.066 20.005C132.203 19.919 136.349 20.1975 140.49 20.3245C141.462 20.3383 142.43 20.4508 143.379 20.6603L125.018 26.3374C125.018 26.3825 125.018 26.4235 125.018 26.4685C126.218 26.3784 127.417 26.2924 128.617 26.1982C132.983 25.85 137.353 25.4773 141.722 25.1619C143.407 25.0431 145.105 25.0636 146.794 25.0103C148.295 24.9571 149.373 25.551 149.948 27.173C158.655 25.3708 167.46 25.1783 176.322 25.5346C171.136 27.9922 165.685 29.6921 160.352 31.7319C161.384 31.523 162.421 31.3223 163.449 31.1011C165.15 30.7161 166.599 31.4862 167.039 33.0263C167.48 34.5664 166.705 36.0164 164.999 36.5448C162.209 37.4172 159.393 38.1832 156.349 39.0966C157.769 38.859 158.961 38.687 160.148 38.4658C171.523 36.4547 182.866 34.4558 194.323 33.1778C195.678 33.0263 197.028 32.887 198.403 32.7232C201.259 32.3832 203.985 32.928 206.727 33.952L174.167 45.3308C174.167 45.3922 174.204 45.4495 174.22 45.511C178.77 45.3799 183.319 45.1956 187.868 45.1423C192.418 45.0891 196.963 45.1669 201.512 45.1874C201.512 45.3021 201.533 45.4209 201.545 45.5356C200.684 45.7404 199.827 45.9452 198.962 46.1377C191.859 47.6327 184.767 49.1974 177.644 50.5819C173.282 51.4257 168.863 51.9786 164.473 52.6791C159.369 53.4983 154.273 54.3175 149.164 55.1367C145.464 55.7429 141.775 56.4146 138.079 57.0209C136.422 57.2912 134.619 55.9518 134.223 54.2396C134.117 53.833 134.091 53.4093 134.148 52.9927C134.205 52.5762 134.343 52.175 134.555 51.812C134.766 51.4491 135.047 51.1316 135.38 50.8777C135.714 50.6237 136.095 50.4383 136.5 50.332C142.077 48.8452 147.671 47.4197 153.257 45.9697C153.591 45.9087 153.908 45.776 154.187 45.5806C152.877 45.7895 151.564 45.9902 150.254 46.2114C144.95 47.0921 139.646 48.0014 134.341 48.8493C128.282 49.8118 122.219 50.7785 116.14 51.6305C112.794 52.1015 109.416 52.38 106.042 52.6668C105.198 52.7095 104.352 52.6183 103.537 52.3964C101.692 51.9459 100.987 49.8651 102.031 48.2512C102.847 47.0224 104.006 46.3875 105.332 45.9984C108.984 44.9253 112.652 43.8931 116.311 42.8445C116.814 42.724 117.301 42.5468 117.764 42.3161C115.43 42.5905 113.096 42.8568 110.762 43.1353C107.939 43.4794 105.103 43.7497 102.296 44.2043C99.7339 44.614 97.2002 45.2243 94.6583 45.7567C89.9825 46.7357 85.3067 47.7024 80.635 48.7059C75.3757 49.8323 70.1205 50.9997 64.8613 52.1343C59.602 53.2689 54.2856 54.4526 48.9734 55.4562C47.9696 55.6446 46.7579 55.2432 45.7746 54.8131C44.7912 54.383 44.3139 53.2894 44.3914 52.1384C44.3941 51.5675 44.5717 51.0112 44.9002 50.5452C45.2287 50.0791 45.6921 49.7258 46.2274 49.5333C50.2259 48.0792 54.1755 46.3793 58.2842 45.3349C71.4466 41.9925 84.6702 38.9 97.8612 35.7133C98.1181 35.6708 98.3512 35.5371 98.5181 35.3364C97.5062 35.5453 96.478 35.746 95.4784 35.9672C90.1743 37.1551 84.8701 38.3265 79.566 39.5472C73.4676 40.9507 67.3746 42.383 61.2871 43.8439C54.9956 45.3676 48.7245 46.9569 42.4452 48.5257C41.7434 48.7018 41.0539 48.9353 40.3643 49.1728C39.6926 49.4305 38.9472 49.4151 38.2867 49.1298C37.6261 48.8445 37.1024 48.3118 36.8269 47.645C36.2924 46.2729 36.9085 44.9253 38.3324 44.1798C43.5631 41.4395 48.8795 38.8877 54.4774 36.9789C54.5427 36.9339 54.6447 36.8643 54.8365 36.7741Z" fill="#923CFF"/>
<path fill-rule="evenodd" clip-rule="evenodd" d="M90.5784 12.8124C88.6485 13.2835 86.735 13.82 84.7888 14.2215C77.5629 15.7001 70.3289 17.1337 63.103 18.596C62.1523 18.7885 61.2221 19.0589 60.2836 19.2842C59.6267 19.4398 58.9372 19.5053 58.6924 18.7025C58.4476 17.8997 59.0392 17.5392 59.639 17.3836C61.9483 16.7938 64.2495 16.0892 66.5996 15.7452C74.258 14.6433 81.9408 13.6972 89.6114 12.6691C89.9093 12.6281 90.2112 12.624 90.5131 12.6035C90.5417 12.6977 90.5784 12.7428 90.5784 12.8124Z" fill="#79FF8D"/>
<path fill-rule="evenodd" clip-rule="evenodd" d="M189.542 51.1676C186.347 51.9459 183.152 52.7487 179.945 53.4901C175.526 54.51 171.095 55.4889 166.668 56.472C165.546 56.7218 164.804 56.472 164.739 55.8617C164.632 54.8868 165.428 54.6329 166.109 54.4403C169.157 53.6744 172.23 52.9903 175.286 52.2408C179.334 51.1885 183.51 50.7168 187.689 50.8399C188.309 50.8645 188.913 50.9137 189.55 50.9546C189.55 51.0242 189.546 51.098 189.542 51.1676Z" fill="#79FF8D"/>
<path fill-rule="evenodd" clip-rule="evenodd" d="M82.8955 53.7729C83.177 53.6295 83.4545 53.4698 83.7442 53.3428C87.5142 51.7044 91.2679 50.0209 95.3358 49.2468C96.2864 49.0624 97.2167 48.788 98.1673 48.6242C99.118 48.4603 99.7545 48.915 99.9095 49.6686C100.065 50.4223 99.6607 50.9835 98.7794 51.2784C94.5734 52.725 90.1903 53.5877 85.7516 53.8425C84.8254 53.8835 83.8951 53.9859 82.969 54.0596L82.8955 53.7729Z" fill="#79FF8D"/>
<path fill-rule="evenodd" clip-rule="evenodd" d="M206.16 46.4816C205.574 46.3558 205.001 46.179 204.446 45.9532C204.181 45.8213 203.947 45.633 203.762 45.4015C203.576 45.1699 203.443 44.9005 203.372 44.6121C203.3 44.3237 203.292 44.0232 203.348 43.7314C203.404 43.4395 203.523 43.1634 203.695 42.9221C204.287 42.1029 206.041 41.4312 207.029 41.6933C207.61 41.8268 208.122 42.1721 208.464 42.6625C208.806 43.1529 208.955 43.7534 208.881 44.3476C208.718 45.5723 207.678 46.4857 206.16 46.4816Z" fill="#79FF8D"/>
<path fill-rule="evenodd" clip-rule="evenodd" d="M153.934 19.9436C151.988 20.6112 150.14 21.7335 147.908 21.1396C147.604 21.0927 147.326 20.938 147.126 20.7037C146.925 20.4693 146.815 20.1706 146.814 19.8616C146.789 19.537 146.89 19.2152 147.096 18.9638C147.303 18.7125 147.598 18.5512 147.92 18.514C148.451 18.3685 149.007 18.3336 149.552 18.4116C151.041 18.7434 152.502 19.1817 153.975 19.579L153.934 19.9436Z" fill="#79FF8D"/>
<path fill-rule="evenodd" clip-rule="evenodd" d="M55.2242 19.9886C54.3633 19.9477 53.8207 19.4643 53.8492 18.7598C53.8778 18.0553 54.6652 17.4532 55.5588 17.5023C56.2238 17.5392 57.0031 18.1577 57.0031 18.6492C57.0031 19.3005 56.0402 20.0255 55.2242 19.9886Z" fill="#79FF8D"/>
<path fill-rule="evenodd" clip-rule="evenodd" d="M130.67 55.3744C130.657 55.7244 130.51 56.056 130.26 56.3001C130.01 56.5443 129.676 56.6822 129.327 56.6851C128.56 56.6851 127.834 56.0502 127.826 55.3908C127.818 54.7313 128.503 54.1169 129.307 54.0923C129.657 54.0824 129.996 54.2115 130.251 54.4517C130.506 54.6918 130.657 55.0235 130.67 55.3744Z" fill="#79FF8D"/>
<path fill-rule="evenodd" clip-rule="evenodd" d="M192.752 49.8242C193.287 50.3649 193.862 50.6762 193.891 51.053C193.896 51.1991 193.868 51.3444 193.809 51.4778C193.749 51.6113 193.66 51.7292 193.548 51.8226C193.436 51.916 193.305 51.9824 193.163 52.0165C193.022 52.0507 192.874 52.0518 192.732 52.0197C192.523 51.9592 192.333 51.8457 192.18 51.69C192.027 51.5343 191.916 51.3418 191.859 51.1309C191.855 50.754 192.336 50.3813 192.752 49.8242Z" fill="#79FF8D"/>
</svg>
